<?xml version="1.0" standalone="yes"?>

<svg version="1.1" viewBox="0.0 0.0 199.0 276.0" fill="none" stroke="none" stroke-linecap="square" stroke-miterlimit="10" xmlns="http://www.w3.org/2000/svg" xmlns:xlink="http://www.w3.org/1999/xlink"><clipPath id="p.0"><path d="m0 0l199.0 0l0 276.0l-199.0 0l0 -276.0z" clip-rule="nonzero"></path></clipPath><g clip-path="url(#p.0)"><path fill="#000000" fill-opacity="0.0" d="m0 0l199.73228 0l0 276.3727l-199.73228 0z" fill-rule="nonzero"></path><path fill="#434343" d="m27.366064 41.34765l0 0c0 -13.347218 10.820059 -24.167276 24.167273 -24.167276l96.6662 0l0 0c6.409561 0 12.556595 2.5461884 17.088837 7.078432c4.532257 4.532242 7.07843 10.679283 7.07843 17.088844l0 193.67725c0 13.347214 -10.820053 24.167267 -24.167267 24.167267l-96.6662 0c-13.347214 0 -24.167273 -10.820053 -24.167273 -24.167267z" fill-rule="nonzero"></path><path stroke="#000000" stroke-width="2.0" stroke-linejoin="round" stroke-linecap="butt" d="m27.366064 41.34765l0 0c0 -13.347218 10.820059 -24.167276 24.167273 -24.167276l96.6662 0l0 0c6.409561 0 12.556595 2.5461884 17.088837 7.078432c4.532257 4.532242 7.07843 10.679283 7.07843 17.088844l0 193.67725c0 13.347214 -10.820053 24.167267 -24.167267 24.167267l-96.6662 0c-13.347214 0 -24.167273 -10.820053 -24.167273 -24.167267z" fill-rule="nonzero"></path><path fill="#d9d9d9" d="m27.366064 37.248875l145.00075 0l0 201.85622l-145.00075 0z" fill-rule="nonzero"></path><path stroke="#000000" stroke-width="2.0" stroke-linejoin="round" stroke-linecap="butt" d="m27.366064 37.248875l145.00075 0l0 201.85622l-145.00075 0z" fill-rule="nonzero"></path><path fill="#000000" d="m37.225437 140.72198l1.6875 -0.140625q0.125 1.015625 0.5625 1.671875q0.4375 0.65625 1.359375 1.0625q0.9375 0.40625 2.09375 0.40625q1.03125 0 1.8125 -0.3125q0.796875 -0.3125 1.1875 -0.84375q0.390625 -0.53125 0.390625 -1.15625q0 -0.640625 -0.375 -1.109375q-0.375 -0.484375 -1.234375 -0.8125q-0.546875 -0.21875 -2.421875 -0.65625q-1.875 -0.453125 -2.625 -0.859375q-0.96875 -0.515625 -1.453125 -1.265625q-0.46875 -0.75 -0.46875 -1.6875q0 -1.03125 0.578125 -1.921875q0.59375 -0.90625 1.703125 -1.359375q1.125 -0.46875 2.5 -0.46875q1.515625 0 2.671875 0.484375q1.15625 0.484375 1.765625 1.4375q0.625 0.9375 0.671875 2.140625l-1.71875 0.125q-0.140625 -1.28125 -0.953125 -1.9375q-0.796875 -0.671875 -2.359375 -0.671875q-1.625 0 -2.375 0.609375q-0.75 0.59375 -0.75 1.4375q0 0.734375 0.53125 1.203125q0.515625 0.46875 2.703125 0.96875q2.203125 0.5 3.015625 0.875q1.1875 0.546875 1.75 1.390625q0.578125 0.828125 0.578125 1.921875q0 1.09375 -0.625 2.0625q-0.625 0.953125 -1.796875 1.484375q-1.15625 0.53125 -2.609375 0.53125q-1.84375 0 -3.09375 -0.53125q-1.25 -0.546875 -1.96875 -1.625q-0.703125 -1.078125 -0.734375 -2.453125zm19.271698 0.765625l1.640625 0.21875q-0.265625 1.6875 -1.375 2.65625q-1.109375 0.953125 -2.734375 0.953125q-2.015625 0 -3.25 -1.3125q-1.21875 -1.328125 -1.21875 -3.796875q0 -1.59375 0.515625 -2.78125q0.53125 -1.203125 1.609375 -1.796875q1.09375 -0.609375 2.359375 -0.609375q1.609375 0 2.625 0.8125q1.015625 0.8125 1.3125 2.3125l-1.625 0.25q-0.234375 -1.0 -0.828125 -1.5q-0.59375 -0.5 -1.421875 -0.5q-1.265625 0 -2.0625 0.90625q-0.78125 0.90625 -0.78125 2.859375q0 1.984375 0.765625 2.890625q0.765625 0.890625 1.984375 0.890625q0.984375 0 1.640625 -0.59375q0.65625 -0.609375 0.84375 -1.859375zm2.875 3.609375l0 -9.859375l1.5 0l0 1.5q0.578125 -1.046875 1.0625 -1.375q0.484375 -0.34375 1.078125 -0.34375q0.84375 0 1.7187538 0.546875l-0.578125 1.546875q-0.6093788 -0.359375 -1.2343788 -0.359375q-0.546875 0 -0.984375 0.328125q-0.421875 0.328125 -0.609375 0.90625q-0.28125 0.890625 -0.28125 1.953125l0 5.15625l-1.671875 0zm12.978306 -3.171875l1.71875 0.21875q-0.40625 1.5 -1.515625 2.34375q-1.09375 0.828125 -2.8125 0.828125q-2.15625 0 -3.421875 -1.328125q-1.265625 -1.328125 -1.265625 -3.734375q0 -2.484375 1.265625 -3.859375q1.28125 -1.375 3.328125 -1.375q1.984375 0 3.234375 1.34375q1.25 1.34375 1.25 3.796875q0 0.140625 -0.015625 0.4375l-7.34375 0q0.09375 1.625 0.921875 2.484375q0.828125 0.859375 2.0625 0.859375q0.90625 0 1.546875 -0.46875q0.65625 -0.484375 1.046875 -1.546875zm-5.484375 -2.703125l5.5 0q-0.109375 -1.234375 -0.625 -1.859375q-0.796875 -0.96875 -2.078125 -0.96875q-1.140625 0 -1.9375 0.78125q-0.78125 0.765625 -0.859375 2.046875zm15.860092 2.703125l1.71875 0.21875q-0.40625 1.5 -1.515625 2.34375q-1.09375 0.828125 -2.8125 0.828125q-2.15625 0 -3.421875 -1.328125q-1.265625 -1.328125 -1.265625 -3.734375q0 -2.484375 1.265625 -3.859375q1.28125 -1.375 3.328125 -1.375q1.984375 0 3.234375 1.34375q1.25 1.34375 1.25 3.796875q0 0.140625 -0.015625 0.4375l-7.34375 0q0.09375 1.625 0.921875 2.484375q0.828125 0.859375 2.0625 0.859375q0.90625 0 1.546875 -0.46875q0.65625 -0.484375 1.046875 -1.546875zm-5.484375 -2.703125l5.5 0q-0.109375 -1.234375 -0.625 -1.859375q-0.796875 -0.96875 -2.078125 -0.96875q-1.140625 0 -1.9375 0.78125q-0.78125 0.765625 -0.859375 2.046875zm9.110092 5.875l0 -9.859375l1.5 0l0 1.40625q1.09375 -1.625 3.140625 -1.625q0.890625 0 1.640625 0.328125q0.75 0.3125 1.109375 0.84375q0.375 0.515625 0.53125 1.21875q0.09375 0.46875 0.09375 1.625l0 6.0625l-1.671875 0l0 -6.0q0 -1.015625 -0.203125 -1.515625q-0.1875 -0.515625 -0.6875 -0.8125q-0.5 -0.296875 -1.171875 -0.296875q-1.0625 0 -1.84375 0.671875q-0.765625 0.671875 -0.765625 2.578125l0 5.375l-1.671875 0z" fill-rule="nonzero"></path><path fill="#cfe2f3" d="m27.364552 38.553604l75.842514 0l0 64.99704l-75.842514 0z" fill-rule="nonzero"></path><path stroke="#000000" stroke-width="2.0" stroke-linejoin="round" stroke-linecap="butt" d="m27.364552 38.553604l75.842514 0l0 64.99704l-75.842514 0z" fill-rule="nonzero"></path><path fill="#ffffff" d="m30.379292 47.582024l69.813034 0l0 9.632l-69.813034 0z" fill-rule="nonzero"></path><path stroke="#000000" stroke-width="2.0" stroke-linejoin="round" stroke-linecap="butt" d="m30.379292 47.582024l69.813034 0l0 9.632l-69.813034 0z" fill-rule="nonzero"></path><path fill="#ffffff" d="m30.379292 66.84602l69.813034 0l0 9.631996l-69.813034 0z" fill-rule="nonzero"></path><path stroke="#000000" stroke-width="2.0" stroke-linejoin="round" stroke-linecap="butt" d="m30.379292 66.84602l69.813034 0l0 9.631996l-69.813034 0z" fill-rule="nonzero"></path><path fill="#ffffff" d="m30.379292 86.11002l69.813034 0l0 9.631996l-69.813034 0z" fill-rule="nonzero"></path><path stroke="#000000" stroke-width="2.0" stroke-linejoin="round" stroke-linecap="butt" d="m30.379292 86.11002l69.813034 0l0 9.631996l-69.813034 0z" fill-rule="nonzero"></path><path fill="#cfe2f3" d="m457.8399 74.50394l69.165344 0l0 65.00787l-69.165344 0z" fill-rule="nonzero"></path><path stroke="#000000" stroke-width="2.0" stroke-linejoin="round" stroke-linecap="butt" d="m457.8399 74.50394l69.165344 0l0 65.00787l-69.165344 0z" fill-rule="nonzero"></path><path fill="#ffffff" d="m466.40683 98.30068l0 0c-0.5119629 -4.194481 1.1688843 -8.346764 4.3292847 -10.694878c3.160431 -2.348114 7.2461243 -2.4802551 10.523407 -0.34035492l0 0c1.1608887 -2.4388428 3.2857056 -4.122696 5.7316895 -4.5422287c2.445984 -0.41953278 4.925873 0.4745407 6.6895447 2.411766l0 0c0.9889221 -2.2112122 2.9307556 -3.6968613 5.136383 -3.9297714c2.2056274 -0.23290253 4.362915 0.8199005 5.7063293 2.7848282l0 0c1.7866821 -2.3438873 4.6293335 -3.3307571 7.2979126 -2.5335922c2.6686096 0.7971649 4.6838074 3.2351837 5.1736755 6.2591095l0 0c2.1890259 0.6656723 4.01239 2.3579025 4.9990234 4.6394653c0.98669434 2.2815628 1.039856 4.92865 0.14581299 7.257332l0 0c2.1555176 3.127678 2.659729 7.295265 1.3245239 10.947502c-1.3352661 3.652237 -4.309326 6.24041 -7.812378 6.7986526c-0.024658203 3.4277573 -1.7108765 6.573021 -4.4086 8.223473c-2.697754 1.6504593 -5.9858093 1.548378 -8.596802 -0.26689148c-1.1121521 4.1053314 -4.242462 7.125992 -8.038544 7.7569427c-3.7960815 0.6309509 -7.5773926 -1.2409058 -9.710297 -4.8068542c-2.6144714 1.7576599 -5.7516174 2.2639923 -8.703766 1.4047699c-2.9521484 -0.8592377 -5.4706116 -3.01165 -6.9873047 -5.97171l0 0c-2.6716614 0.34855652 -5.2547913 -1.1946487 -6.4673767 -3.8637238c-1.2125854 -2.669075 -0.7965393 -5.8958435 1.0417175 -8.078865l0 0c-2.3832092 -1.5638123 -3.5992432 -4.666939 -3.014038 -7.6912155c0.5852356 -3.0242844 2.8390808 -5.284401 5.5863037 -5.601799z" fill-rule="nonzero"></path><path fill="#000000" fill-opacity="0.0" d="m463.78174 111.755356l0 0c1.1246338 0.73796844 2.4238586 1.0727234 3.7232056 0.9593277m1.7018738 10.983528c0.55877686 -0.072898865 1.1064758 -0.22727203 1.6289978 -0.45913696m14.06131 5.025879c-0.39300537 -0.6570587 -0.7220459 -1.3591919 -0.98153687 -2.0944214m18.731018 -0.8557892l0 0c0.20275879 -0.74845886 0.33413696 -1.5187912 0.39193726 -2.2981339m12.613007 -5.6581497c0.026306152 -3.649376 -1.8328857 -6.990776 -4.7789917 -8.588982m11.266785 -9.156792c-0.47711182 1.2426758 -1.2055054 2.3450394 -2.1279907 3.2206573m-3.0164185 -15.117775l0 0c0.08129883 0.5018158 0.11895752 1.0111847 0.11236572 1.5210266m-12.58374 -5.2464066l0 0c-0.4456787 0.5846863 -0.8128662 1.23806 -1.0901184 1.9397812m-9.752716 -0.7950821l0 0c-0.23751831 0.53105927 -0.41485596 1.0930176 -0.5279846 1.6729202m-11.893433 0.45758057l0 0c0.69348145 0.45280457 1.335022 0.99780273 1.9105835 1.6230164m-16.763062 9.412277l0 0c0.07055664 0.5781021 0.18203735 1.149086 0.33340454 1.7075958" fill-rule="nonzero"></path><path stroke="#000000" stroke-width="2.0" stroke-linejoin="round" stroke-linecap="butt" d="m466.40683 98.30068l0 0c-0.5119629 -4.194481 1.1688843 -8.346764 4.3292847 -10.694878c3.160431 -2.348114 7.2461243 -2.4802551 10.523407 -0.34035492l0 0c1.1608887 -2.4388428 3.2857056 -4.122696 5.7316895 -4.5422287c2.445984 -0.41953278 4.925873 0.4745407 6.6895447 2.411766l0 0c0.9889221 -2.2112122 2.9307556 -3.6968613 5.136383 -3.9297714c2.2056274 -0.23290253 4.362915 0.8199005 5.7063293 2.7848282l0 0c1.7866821 -2.3438873 4.6293335 -3.3307571 7.2979126 -2.5335922c2.6686096 0.7971649 4.6838074 3.2351837 5.1736755 6.2591095l0 0c2.1890259 0.6656723 4.01239 2.3579025 4.9990234 4.6394653c0.98669434 2.2815628 1.039856 4.92865 0.14581299 7.257332l0 0c2.1555176 3.127678 2.659729 7.295265 1.3245239 10.947502c-1.3352661 3.652237 -4.309326 6.24041 -7.812378 6.7986526c-0.024658203 3.4277573 -1.7108765 6.573021 -4.4086 8.223473c-2.697754 1.6504593 -5.9858093 1.548378 -8.596802 -0.26689148c-1.1121521 4.1053314 -4.242462 7.125992 -8.038544 7.7569427c-3.7960815 0.6309509 -7.5773926 -1.2409058 -9.710297 -4.8068542c-2.6144714 1.7576599 -5.7516174 2.2639923 -8.703766 1.4047699c-2.9521484 -0.8592377 -5.4706116 -3.01165 -6.9873047 -5.97171l0 0c-2.6716614 0.34855652 -5.2547913 -1.1946487 -6.4673767 -3.8637238c-1.2125854 -2.669075 -0.7965393 -5.8958435 1.0417175 -8.078865l0 0c-2.3832092 -1.5638123 -3.5992432 -4.666939 -3.014038 -7.6912155c0.5852356 -3.0242844 2.8390808 -5.284401 5.5863037 -5.601799z" fill-rule="nonzero"></path><path stroke="#000000" stroke-width="2.0" stroke-linejoin="round" stroke-linecap="butt" d="m463.78174 111.755356l0 0c1.1246338 0.73796844 2.4238586 1.0727234 3.7232056 0.9593277m1.7018738 10.983528c0.55877686 -0.072898865 1.1064758 -0.22727203 1.6289978 -0.45913696m14.06131 5.025879c-0.39300537 -0.6570587 -0.7220459 -1.3591919 -0.98153687 -2.0944214m18.731018 -0.8557892l0 0c0.20275879 -0.74845886 0.33413696 -1.5187912 0.39193726 -2.2981339m12.613007 -5.6581497c0.026306152 -3.649376 -1.8328857 -6.990776 -4.7789917 -8.588982m11.266785 -9.156792c-0.47711182 1.2426758 -1.2055054 2.3450394 -2.1279907 3.2206573m-3.0164185 -15.117775l0 0c0.08129883 0.5018158 0.11895752 1.0111847 0.11236572 1.5210266m-12.58374 -5.2464066l0 0c-0.4456787 0.5846863 -0.8128662 1.23806 -1.0901184 1.9397812m-9.752716 -0.7950821l0 0c-0.23751831 0.53105927 -0.41485596 1.0930176 -0.5279846 1.6729202m-11.893433 0.45758057l0 0c0.69348145 0.45280457 1.335022 0.99780273 1.9105835 1.6230164m-16.763062 9.412277l0 0c0.07055664 0.5781021 0.18203735 1.149086 0.33340454 1.7075958" fill-rule="nonzero"></path><path fill="#000000" d="m478.4102 110.598366l3.578125 -9.3125l1.3125 0l3.8125 9.3125l-1.40625 0l-1.078125 -2.8125l-3.890625 0l-1.03125 2.8125l-1.296875 0zm2.6875 -3.828125l3.15625 0l-0.984375 -2.578125q-0.4375 -1.171875 -0.65625 -1.921875q-0.171875 0.890625 -0.5 1.78125l-1.015625 2.71875zm7.2178955 3.828125l0 -9.3125l3.515625 0q0.921875 0 1.40625 0.09375q0.6875 0.109375 1.15625 0.4375q0.46875 0.3125 0.75 0.890625q0.28125 0.578125 0.28125 1.28125q0 1.1875 -0.765625 2.015625q-0.75 0.8125 -2.71875 0.8125l-2.390625 0l0 3.78125l-1.234375 0zm1.234375 -4.875l2.40625 0q1.1875 0 1.6875 -0.4375q0.515625 -0.453125 0.515625 -1.265625q0 -0.578125 -0.296875 -0.984375q-0.296875 -0.421875 -0.78125 -0.5625q-0.3125 -0.078125 -1.15625 -0.078125l-2.375 0l0 3.328125zm7.874115 4.875l0 -9.3125l1.21875 0l0 9.3125l-1.21875 0z" fill-rule="nonzero"></path><path fill="#cfe2f3" d="m457.8399 74.50394l69.165344 0l0 65.00787l-69.165344 0z" fill-rule="nonzero"></path><path stroke="#000000" stroke-width="2.0" stroke-linejoin="round" stroke-linecap="butt" d="m457.8399 74.50394l69.165344 0l0 65.00787l-69.165344 0z" fill-rule="nonzero"></path><path fill="#ffffff" d="m466.40683 98.30068l0 0c-0.5119629 -4.194481 1.1688843 -8.346764 4.3292847 -10.694878c3.160431 -2.348114 7.2461243 -2.4802551 10.523407 -0.34035492l0 0c1.1608887 -2.4388428 3.2857056 -4.122696 5.7316895 -4.5422287c2.445984 -0.41953278 4.925873 0.4745407 6.6895447 2.411766l0 0c0.9889221 -2.2112122 2.9307556 -3.6968613 5.136383 -3.9297714c2.2056274 -0.23290253 4.362915 0.8199005 5.7063293 2.7848282l0 0c1.7866821 -2.3438873 4.6293335 -3.3307571 7.2979126 -2.5335922c2.6686096 0.7971649 4.6838074 3.2351837 5.1736755 6.2591095l0 0c2.1890259 0.6656723 4.01239 2.3579025 4.9990234 4.6394653c0.98669434 2.2815628 1.039856 4.92865 0.14581299 7.257332l0 0c2.1555176 3.127678 2.659729 7.295265 1.3245239 10.947502c-1.3352661 3.652237 -4.309326 6.24041 -7.812378 6.7986526c-0.024658203 3.4277573 -1.7108765 6.573021 -4.4086 8.223473c-2.697754 1.6504593 -5.9858093 1.548378 -8.596802 -0.26689148c-1.1121521 4.1053314 -4.242462 7.125992 -8.038544 7.7569427c-3.7960815 0.6309509 -7.5773926 -1.2409058 -9.710297 -4.8068542c-2.6144714 1.7576599 -5.7516174 2.2639923 -8.703766 1.4047699c-2.9521484 -0.8592377 -5.4706116 -3.01165 -6.9873047 -5.97171l0 0c-2.6716614 0.34855652 -5.2547913 -1.1946487 -6.4673767 -3.8637238c-1.2125854 -2.669075 -0.7965393 -5.8958435 1.0417175 -8.078865l0 0c-2.3832092 -1.5638123 -3.5992432 -4.666939 -3.014038 -7.6912155c0.5852356 -3.0242844 2.8390808 -5.284401 5.5863037 -5.601799z" fill-rule="nonzero"></path><path fill="#000000" fill-opacity="0.0" d="m463.78174 111.755356l0 0c1.1246338 0.73796844 2.4238586 1.0727234 3.7232056 0.9593277m1.7018738 10.983528c0.55877686 -0.072898865 1.1064758 -0.22727203 1.6289978 -0.45913696m14.06131 5.025879c-0.39300537 -0.6570587 -0.7220459 -1.3591919 -0.98153687 -2.0944214m18.731018 -0.8557892l0 0c0.20275879 -0.74845886 0.33413696 -1.5187912 0.39193726 -2.2981339m12.613007 -5.6581497c0.026306152 -3.649376 -1.8328857 -6.990776 -4.7789917 -8.588982m11.266785 -9.156792c-0.47711182 1.2426758 -1.2055054 2.3450394 -2.1279907 3.2206573m-3.0164185 -15.117775l0 0c0.08129883 0.5018158 0.11895752 1.0111847 0.11236572 1.5210266m-12.58374 -5.2464066l0 0c-0.4456787 0.5846863 -0.8128662 1.23806 -1.0901184 1.9397812m-9.752716 -0.7950821l0 0c-0.23751831 0.53105927 -0.41485596 1.0930176 -0.5279846 1.6729202m-11.893433 0.45758057l0 0c0.69348145 0.45280457 1.335022 0.99780273 1.9105835 1.6230164m-16.763062 9.412277l0 0c0.07055664 0.5781021 0.18203735 1.149086 0.33340454 1.7075958" fill-rule="nonzero"></path><path stroke="#000000" stroke-width="2.0" stroke-linejoin="round" stroke-linecap="butt" d="m466.40683 98.30068l0 0c-0.5119629 -4.194481 1.1688843 -8.346764 4.3292847 -10.694878c3.160431 -2.348114 7.2461243 -2.4802551 10.523407 -0.34035492l0 0c1.1608887 -2.4388428 3.2857056 -4.122696 5.7316895 -4.5422287c2.445984 -0.41953278 4.925873 0.4745407 6.6895447 2.411766l0 0c0.9889221 -2.2112122 2.9307556 -3.6968613 5.136383 -3.9297714c2.2056274 -0.23290253 4.362915 0.8199005 5.7063293 2.7848282l0 0c1.7866821 -2.3438873 4.6293335 -3.3307571 7.2979126 -2.5335922c2.6686096 0.7971649 4.6838074 3.2351837 5.1736755 6.2591095l0 0c2.1890259 0.6656723 4.01239 2.3579025 4.9990234 4.6394653c0.98669434 2.2815628 1.039856 4.92865 0.14581299 7.257332l0 0c2.1555176 3.127678 2.659729 7.295265 1.3245239 10.947502c-1.3352661 3.652237 -4.309326 6.24041 -7.812378 6.7986526c-0.024658203 3.4277573 -1.7108765 6.573021 -4.4086 8.223473c-2.697754 1.6504593 -5.9858093 1.548378 -8.596802 -0.26689148c-1.1121521 4.1053314 -4.242462 7.125992 -8.038544 7.7569427c-3.7960815 0.6309509 -7.5773926 -1.2409058 -9.710297 -4.8068542c-2.6144714 1.7576599 -5.7516174 2.2639923 -8.703766 1.4047699c-2.9521484 -0.8592377 -5.4706116 -3.01165 -6.9873047 -5.97171l0 0c-2.6716614 0.34855652 -5.2547913 -1.1946487 -6.4673767 -3.8637238c-1.2125854 -2.669075 -0.7965393 -5.8958435 1.0417175 -8.078865l0 0c-2.3832092 -1.5638123 -3.5992432 -4.666939 -3.014038 -7.6912155c0.5852356 -3.0242844 2.8390808 -5.284401 5.5863037 -5.601799z" fill-rule="nonzero"></path><path stroke="#000000" stroke-width="2.0" stroke-linejoin="round" stroke-linecap="butt" d="m463.78174 111.755356l0 0c1.1246338 0.73796844 2.4238586 1.0727234 3.7232056 0.9593277m1.7018738 10.983528c0.55877686 -0.072898865 1.1064758 -0.22727203 1.6289978 -0.45913696m14.06131 5.025879c-0.39300537 -0.6570587 -0.7220459 -1.3591919 -0.98153687 -2.0944214m18.731018 -0.8557892l0 0c0.20275879 -0.74845886 0.33413696 -1.5187912 0.39193726 -2.2981339m12.613007 -5.6581497c0.026306152 -3.649376 -1.8328857 -6.990776 -4.7789917 -8.588982m11.266785 -9.156792c-0.47711182 1.2426758 -1.2055054 2.3450394 -2.1279907 3.2206573m-3.0164185 -15.117775l0 0c0.08129883 0.5018158 0.11895752 1.0111847 0.11236572 1.5210266m-12.58374 -5.2464066l0 0c-0.4456787 0.5846863 -0.8128662 1.23806 -1.0901184 1.9397812m-9.752716 -0.7950821l0 0c-0.23751831 0.53105927 -0.41485596 1.0930176 -0.5279846 1.6729202m-11.893433 0.45758057l0 0c0.69348145 0.45280457 1.335022 0.99780273 1.9105835 1.6230164m-16.763062 9.412277l0 0c0.07055664 0.5781021 0.18203735 1.149086 0.33340454 1.7075958" fill-rule="nonzero"></path><path fill="#000000" d="m478.4102 110.598366l3.578125 -9.3125l1.3125 0l3.8125 9.3125l-1.40625 0l-1.078125 -2.8125l-3.890625 0l-1.03125 2.8125l-1.296875 0zm2.6875 -3.828125l3.15625 0l-0.984375 -2.578125q-0.4375 -1.171875 -0.65625 -1.921875q-0.171875 0.890625 -0.5 1.78125l-1.015625 2.71875zm7.2178955 3.828125l0 -9.3125l3.515625 0q0.921875 0 1.40625 0.09375q0.6875 0.109375 1.15625 0.4375q0.46875 0.3125 0.75 0.890625q0.28125 0.578125 0.28125 1.28125q0 1.1875 -0.765625 2.015625q-0.75 0.8125 -2.71875 0.8125l-2.390625 0l0 3.78125l-1.234375 0zm1.234375 -4.875l2.40625 0q1.1875 0 1.6875 -0.4375q0.515625 -0.453125 0.515625 -1.265625q0 -0.578125 -0.296875 -0.984375q-0.296875 -0.421875 -0.78125 -0.5625q-0.3125 -0.078125 -1.15625 -0.078125l-2.375 0l0 3.328125zm7.874115 4.875l0 -9.3125l1.21875 0l0 9.3125l-1.21875 0z" fill-rule="nonzero"></path><path fill="#cfe2f3" d="m473.8399 90.50394l69.165344 0l0 65.00787l-69.165344 0z" fill-rule="nonzero"></path><path stroke="#000000" stroke-width="2.0" stroke-linejoin="round" stroke-linecap="butt" d="m473.8399 90.50394l69.165344 0l0 65.00787l-69.165344 0z" fill-rule="nonzero"></path><path fill="#ffffff" d="m482.40683 114.30068l0 0c-0.5119629 -4.194481 1.1688843 -8.346764 4.3292847 -10.694878c3.160431 -2.348114 7.2461243 -2.4802551 10.523407 -0.34035492l0 0c1.1608887 -2.4388428 3.2857056 -4.122696 5.7316895 -4.5422287c2.445984 -0.41953278 4.925873 0.4745407 6.6895447 2.411766l0 0c0.9889221 -2.2112122 2.9307556 -3.6968613 5.136383 -3.9297714c2.2056274 -0.23290253 4.362915 0.8199005 5.70636 2.7848282l0 0c1.7866821 -2.3438873 4.6293335 -3.3307571 7.2979126 -2.5335922c2.668579 0.7971649 4.683777 3.2351837 5.173645 6.2591095l0 0c2.1890259 0.6656723 4.01239 2.3579025 4.9990234 4.6394653c0.98669434 2.2815628 1.039856 4.92865 0.14581299 7.257332l0 0c2.1555176 3.127678 2.659729 7.295265 1.3245239 10.947502c-1.3352661 3.652237 -4.309326 6.240402 -7.812378 6.7986603c-0.024658203 3.4277496 -1.7108765 6.5730133 -4.4086304 8.223465c-2.697754 1.6504517 -5.985779 1.5483704 -8.596802 -0.26689148c-1.1121216 4.1053314 -4.2424316 7.125992 -8.038513 7.7569427c-3.7960815 0.6309509 -7.5773926 -1.2409058 -9.710297 -4.8068542c-2.6144714 1.7576599 -5.7516174 2.2639923 -8.703766 1.4047699c-2.9521484 -0.8592377 -5.4706116 -3.0116577 -6.9873047 -5.97171l0 0c-2.6716614 0.34855652 -5.2547913 -1.1946411 -6.4673767 -3.8637238c-1.2125854 -2.6690826 -0.7965393 -5.8958435 1.0417175 -8.078865l0 0c-2.3832092 -1.5638123 -3.5992432 -4.666939 -3.014038 -7.6912155c0.5852356 -3.0242844 2.8390808 -5.284401 5.5863037 -5.601799z" fill-rule="nonzero"></path><path fill="#000000" fill-opacity="0.0" d="m479.78174 127.755356l0 0c1.1246338 0.7379608 2.4238586 1.0727234 3.7232056 0.9593353m1.7018738 10.9835205c0.55877686 -0.072906494 1.1064758 -0.22727966 1.6289978 -0.45913696m14.06131 5.025879c-0.39300537 -0.6570587 -0.7220459 -1.3591919 -0.98153687 -2.0944214m18.731018 -0.8557892l0 0c0.20275879 -0.74845886 0.33416748 -1.5187836 0.39190674 -2.2981415m12.613037 -5.658142c0.026306152 -3.6493683 -1.8328857 -6.990776 -4.7789917 -8.588982m11.266785 -9.156792c-0.47711182 1.2426758 -1.2055054 2.3450394 -2.1279907 3.2206573m-3.0164185 -15.117775l0 0c0.08129883 0.5018158 0.11895752 1.0111847 0.11236572 1.5210266m-12.58374 -5.2464066l0 0c-0.4456787 0.5846863 -0.8128662 1.23806 -1.0901489 1.9397812m-9.752686 -0.7950821l0 0c-0.23751831 0.53105927 -0.41485596 1.0930176 -0.5279846 1.6729202m-11.893433 0.45758057l0 0c0.69348145 0.45280457 1.335022 0.99780273 1.9105835 1.6230164m-16.763062 9.412277l0 0c0.07055664 0.5781021 0.18203735 1.149086 0.33340454 1.7075958" fill-rule="nonzero"></path><path stroke="#000000" stroke-width="2.0" stroke-linejoin="round" stroke-linecap="butt" d="m482.40683 114.30068l0 0c-0.5119629 -4.194481 1.1688843 -8.346764 4.3292847 -10.694878c3.160431 -2.348114 7.2461243 -2.4802551 10.523407 -0.34035492l0 0c1.1608887 -2.4388428 3.2857056 -4.122696 5.7316895 -4.5422287c2.445984 -0.41953278 4.925873 0.4745407 6.6895447 2.411766l0 0c0.9889221 -2.2112122 2.9307556 -3.6968613 5.136383 -3.9297714c2.2056274 -0.23290253 4.362915 0.8199005 5.70636 2.7848282l0 0c1.7866821 -2.3438873 4.6293335 -3.3307571 7.2979126 -2.5335922c2.668579 0.7971649 4.683777 3.2351837 5.173645 6.2591095l0 0c2.1890259 0.6656723 4.01239 2.3579025 4.9990234 4.6394653c0.98669434 2.2815628 1.039856 4.92865 0.14581299 7.257332l0 0c2.1555176 3.127678 2.659729 7.295265 1.3245239 10.947502c-1.3352661 3.652237 -4.309326 6.240402 -7.812378 6.7986603c-0.024658203 3.4277496 -1.7108765 6.5730133 -4.4086304 8.223465c-2.697754 1.6504517 -5.985779 1.5483704 -8.596802 -0.26689148c-1.1121216 4.1053314 -4.2424316 7.125992 -8.038513 7.7569427c-3.7960815 0.6309509 -7.5773926 -1.2409058 -9.710297 -4.8068542c-2.6144714 1.7576599 -5.7516174 2.2639923 -8.703766 1.4047699c-2.9521484 -0.8592377 -5.4706116 -3.0116577 -6.9873047 -5.97171l0 0c-2.6716614 0.34855652 -5.2547913 -1.1946411 -6.4673767 -3.8637238c-1.2125854 -2.6690826 -0.7965393 -5.8958435 1.0417175 -8.078865l0 0c-2.3832092 -1.5638123 -3.5992432 -4.666939 -3.014038 -7.6912155c0.5852356 -3.0242844 2.8390808 -5.284401 5.5863037 -5.601799z" fill-rule="nonzero"></path><path stroke="#000000" stroke-width="2.0" stroke-linejoin="round" stroke-linecap="butt" d="m479.78174 127.755356l0 0c1.1246338 0.7379608 2.4238586 1.0727234 3.7232056 0.9593353m1.7018738 10.9835205c0.55877686 -0.072906494 1.1064758 -0.22727966 1.6289978 -0.45913696m14.06131 5.025879c-0.39300537 -0.6570587 -0.7220459 -1.3591919 -0.98153687 -2.0944214m18.731018 -0.8557892l0 0c0.20275879 -0.74845886 0.33416748 -1.5187836 0.39190674 -2.2981415m12.613037 -5.658142c0.026306152 -3.6493683 -1.8328857 -6.990776 -4.7789917 -8.588982m11.266785 -9.156792c-0.47711182 1.2426758 -1.2055054 2.3450394 -2.1279907 3.2206573m-3.0164185 -15.117775l0 0c0.08129883 0.5018158 0.11895752 1.0111847 0.11236572 1.5210266m-12.58374 -5.2464066l0 0c-0.4456787 0.5846863 -0.8128662 1.23806 -1.0901489 1.9397812m-9.752686 -0.7950821l0 0c-0.23751831 0.53105927 -0.41485596 1.0930176 -0.5279846 1.6729202m-11.893433 0.45758057l0 0c0.69348145 0.45280457 1.335022 0.99780273 1.9105835 1.6230164m-16.763062 9.412277l0 0c0.07055664 0.5781021 0.18203735 1.149086 0.33340454 1.7075958" fill-rule="nonzero"></path><path fill="#000000" d="m494.4102 126.598366l3.578125 -9.3125l1.3125 0l3.8125 9.3125l-1.40625 0l-1.078125 -2.8125l-3.890625 0l-1.03125 2.8125l-1.296875 0zm2.6875 -3.828125l3.15625 0l-0.984375 -2.578125q-0.4375 -1.171875 -0.65625 -1.921875q-0.171875 0.890625 -0.5 1.78125l-1.015625 2.71875zm7.2178955 3.828125l0 -9.3125l3.515625 0q0.921875 0 1.40625 0.09375q0.6875 0.109375 1.15625 0.4375q0.46875 0.3125 0.75 0.890625q0.28125 0.578125 0.28125 1.28125q0 1.1875 -0.765625 2.015625q-0.75 0.8125 -2.71875 0.8125l-2.390625 0l0 3.78125l-1.234375 0zm1.234375 -4.875l2.40625 0q1.1875 0 1.6875 -0.4375q0.515625 -0.453125 0.515625 -1.265625q0 -0.578125 -0.296875 -0.984375q-0.296875 -0.421875 -0.78125 -0.5625q-0.3125 -0.078125 -1.15625 -0.078125l-2.375 0l0 3.328125zm7.874115 4.875l0 -9.3125l1.21875 0l0 9.3125l-1.21875 0z" fill-rule="nonzero"></path><path fill="#cfe2f3" d="m489.8399 106.50394l69.165344 0l0 65.00787l-69.165344 0z" fill-rule="nonzero"></path><path stroke="#000000" stroke-width="2.0" stroke-linejoin="round" stroke-linecap="butt" d="m489.8399 106.50394l69.165344 0l0 65.00787l-69.165344 0z" fill-rule="nonzero"></path><path fill="#ffffff" d="m498.40683 130.30067l0 0c-0.5119629 -4.1944733 1.1688843 -8.346756 4.3292847 -10.69487c3.160431 -2.348114 7.2461243 -2.4802551 10.523407 -0.34035492l0 0c1.1608887 -2.4388428 3.2857056 -4.122696 5.7316895 -4.5422287c2.445984 -0.41953278 4.9259033 0.4745407 6.689514 2.411766l0 0c0.98895264 -2.2112122 2.9307861 -3.6968613 5.1364136 -3.9297714c2.2056274 -0.23290253 4.362915 0.8199005 5.70636 2.7848282l0 0c1.7866821 -2.3438873 4.6293335 -3.3307571 7.2979126 -2.5335922c2.668579 0.7971649 4.683777 3.2351837 5.173645 6.2591095l0 0c2.1890259 0.6656723 4.01239 2.3579025 4.9990234 4.6394653c0.98669434 2.2815628 1.039856 4.92865 0.14581299 7.257324l0 0c2.1555176 3.1276855 2.659729 7.295273 1.3245239 10.94751c-1.3352661 3.652237 -4.309326 6.240402 -7.812378 6.7986603c-0.024658203 3.4277496 -1.7108765 6.5730133 -4.4086304 8.223465c-2.697754 1.6504517 -5.985779 1.5483704 -8.596802 -0.26689148c-1.1121216 4.1053314 -4.2424316 7.125992 -8.038513 7.7569427c-3.7960815 0.6309509 -7.5773926 -1.2409058 -9.710266 -4.8068542c-2.614502 1.7576599 -5.751648 2.2639923 -8.703796 1.4047699c-2.9521484 -0.8592377 -5.4706116 -3.0116577 -6.9873047 -5.97171l0 0c-2.6716614 0.34855652 -5.2547913 -1.1946411 -6.4673767 -3.8637238c-1.2125854 -2.6690826 -0.7965393 -5.8958435 1.0417175 -8.078873l0 0c-2.3832092 -1.5638123 -3.5992432 -4.666931 -3.014038 -7.691208c0.5852356 -3.0242767 2.8390808 -5.2844086 5.5863037 -5.6018066z" fill-rule="nonzero"></path><path fill="#000000" fill-opacity="0.0" d="m495.78174 143.75536l0 0c1.1246338 0.7379608 2.4238586 1.0727234 3.7232056 0.9593353m1.7018738 10.9835205c0.55877686 -0.072906494 1.1064758 -0.22727966 1.6289978 -0.45913696m14.061279 5.025879c-0.39300537 -0.6570587 -0.7220459 -1.3591919 -0.98150635 -2.0944214m18.731018 -0.8557892l0 0c0.20275879 -0.74845886 0.33416748 -1.5187836 0.39190674 -2.2981415m12.613037 -5.658142c0.026306152 -3.6493683 -1.8328857 -6.9907837 -4.7789917 -8.588974m11.266785 -9.156799c-0.47711182 1.2426758 -1.2055054 2.345047 -2.1279907 3.2206573m-3.0164185 -15.117775l0 0c0.08129883 0.5018158 0.11895752 1.0111847 0.11236572 1.5210266m-12.58374 -5.2464066l0 0c-0.4456787 0.5846863 -0.8128662 1.23806 -1.0901489 1.9397812m-9.752686 -0.7950821l0 0c-0.2374878 0.53105927 -0.41485596 1.0930176 -0.5279541 1.6729202m-11.893433 0.45758057l0 0c0.6934204 0.45280457 1.335022 0.99780273 1.9105225 1.6230164m-16.763031 9.41227l0 0c0.07055664 0.57810974 0.18203735 1.1490936 0.33340454 1.7075958" fill-rule="nonzero"></path><path stroke="#000000" stroke-width="2.0" stroke-linejoin="round" stroke-linecap="butt" d="m498.40683 130.30067l0 0c-0.5119629 -4.1944733 1.1688843 -8.346756 4.3292847 -10.69487c3.160431 -2.348114 7.2461243 -2.4802551 10.523407 -0.34035492l0 0c1.1608887 -2.4388428 3.2857056 -4.122696 5.7316895 -4.5422287c2.445984 -0.41953278 4.9259033 0.4745407 6.689514 2.411766l0 0c0.98895264 -2.2112122 2.9307861 -3.6968613 5.1364136 -3.9297714c2.2056274 -0.23290253 4.362915 0.8199005 5.70636 2.7848282l0 0c1.7866821 -2.3438873 4.6293335 -3.3307571 7.2979126 -2.5335922c2.668579 0.7971649 4.683777 3.2351837 5.173645 6.2591095l0 0c2.1890259 0.6656723 4.01239 2.3579025 4.9990234 4.6394653c0.98669434 2.2815628 1.039856 4.92865 0.14581299 7.257324l0 0c2.1555176 3.1276855 2.659729 7.295273 1.3245239 10.94751c-1.3352661 3.652237 -4.309326 6.240402 -7.812378 6.7986603c-0.024658203 3.4277496 -1.7108765 6.5730133 -4.4086304 8.223465c-2.697754 1.6504517 -5.985779 1.5483704 -8.596802 -0.26689148c-1.1121216 4.1053314 -4.2424316 7.125992 -8.038513 7.7569427c-3.7960815 0.6309509 -7.5773926 -1.2409058 -9.710266 -4.8068542c-2.614502 1.7576599 -5.751648 2.2639923 -8.703796 1.4047699c-2.9521484 -0.8592377 -5.4706116 -3.0116577 -6.9873047 -5.97171l0 0c-2.6716614 0.34855652 -5.2547913 -1.1946411 -6.4673767 -3.8637238c-1.2125854 -2.6690826 -0.7965393 -5.8958435 1.0417175 -8.078873l0 0c-2.3832092 -1.5638123 -3.5992432 -4.666931 -3.014038 -7.691208c0.5852356 -3.0242767 2.8390808 -5.2844086 5.5863037 -5.6018066z" fill-rule="nonzero"></path><path stroke="#000000" stroke-width="2.0" stroke-linejoin="round" stroke-linecap="butt" d="m495.78174 143.75536l0 0c1.1246338 0.7379608 2.4238586 1.0727234 3.7232056 0.9593353m1.7018738 10.9835205c0.55877686 -0.072906494 1.1064758 -0.22727966 1.6289978 -0.45913696m14.061279 5.025879c-0.39300537 -0.6570587 -0.7220459 -1.3591919 -0.98150635 -2.0944214m18.731018 -0.8557892l0 0c0.20275879 -0.74845886 0.33416748 -1.5187836 0.39190674 -2.2981415m12.613037 -5.658142c0.026306152 -3.6493683 -1.8328857 -6.9907837 -4.7789917 -8.588974m11.266785 -9.156799c-0.47711182 1.2426758 -1.2055054 2.345047 -2.1279907 3.2206573m-3.0164185 -15.117775l0 0c0.08129883 0.5018158 0.11895752 1.0111847 0.11236572 1.5210266m-12.58374 -5.2464066l0 0c-0.4456787 0.5846863 -0.8128662 1.23806 -1.0901489 1.9397812m-9.752686 -0.7950821l0 0c-0.2374878 0.53105927 -0.41485596 1.0930176 -0.5279541 1.6729202m-11.893433 0.45758057l0 0c0.6934204 0.45280457 1.335022 0.99780273 1.9105225 1.6230164m-16.763031 9.41227l0 0c0.07055664 0.57810974 0.18203735 1.1490936 0.33340454 1.7075958" fill-rule="nonzero"></path><path fill="#000000" d="m510.4102 142.59837l3.5781555 -9.3125l1.3125 0l3.8125 9.3125l-1.40625 0l-1.078125 -2.8125l-3.890625 0l-1.0312805 2.8125l-1.296875 0zm2.6875305 -3.828125l3.15625 0l-0.984375 -2.578125q-0.4375 -1.171875 -0.65625 -1.921875q-0.171875 0.890625 -0.5 1.78125l-1.015625 2.71875zm7.2178345 3.828125l0 -9.3125l3.515625 0q0.921875 0 1.40625 0.09375q0.6875 0.109375 1.15625 0.4375q0.46875 0.3125 0.75 0.890625q0.28125 0.578125 0.28125 1.28125q0 1.1875 -0.765625 2.015625q-0.75 0.8125 -2.71875 0.8125l-2.390625 0l0 3.78125l-1.234375 0zm1.234375 -4.875l2.40625 0q1.1875 0 1.6875 -0.4375q0.515625 -0.453125 0.515625 -1.265625q0 -0.578125 -0.296875 -0.984375q-0.296875 -0.421875 -0.78125 -0.5625q-0.3125 -0.078125 -1.15625 -0.078125l-2.375 0l0 3.328125zm7.8741455 4.875l0 -9.3125l1.21875 0l0 9.3125l-1.21875 0z" fill-rule="nonzero"></path><path fill="#cfe2f3" d="m457.8399 74.50394l69.165344 0l0 65.00787l-69.165344 0z" fill-rule="nonzero"></path><path stroke="#000000" stroke-width="2.0" stroke-linejoin="round" stroke-linecap="butt" d="m457.8399 74.50394l69.165344 0l0 65.00787l-69.165344 0z" fill-rule="nonzero"></path><path fill="#cfe2f3" d="m103.212425 38.767414l68.68032 0l0 65.1644l-68.68032 0z" fill-rule="nonzero"></path><path stroke="#000000" stroke-width="2.0" stroke-linejoin="round" stroke-linecap="butt" d="m103.212425 38.767414l68.68032 0l0 65.1644l-68.68032 0z" fill-rule="nonzero"></path><path fill="#ffffff" d="m466.40683 98.30068l0 0c-0.5119629 -4.194481 1.1688843 -8.346764 4.3292847 -10.694878c3.160431 -2.348114 7.2461243 -2.4802551 10.523407 -0.34035492l0 0c1.1608887 -2.4388428 3.2857056 -4.122696 5.7316895 -4.5422287c2.445984 -0.41953278 4.925873 0.4745407 6.6895447 2.411766l0 0c0.9889221 -2.2112122 2.9307556 -3.6968613 5.136383 -3.9297714c2.2056274 -0.23290253 4.362915 0.8199005 5.7063293 2.7848282l0 0c1.7866821 -2.3438873 4.6293335 -3.3307571 7.2979126 -2.5335922c2.6686096 0.7971649 4.6838074 3.2351837 5.1736755 6.2591095l0 0c2.1890259 0.6656723 4.01239 2.3579025 4.9990234 4.6394653c0.98669434 2.2815628 1.039856 4.92865 0.14581299 7.257332l0 0c2.1555176 3.127678 2.659729 7.295265 1.3245239 10.947502c-1.3352661 3.652237 -4.309326 6.24041 -7.812378 6.7986526c-0.024658203 3.4277573 -1.7108765 6.573021 -4.4086 8.223473c-2.697754 1.6504593 -5.9858093 1.548378 -8.596802 -0.26689148c-1.1121521 4.1053314 -4.242462 7.125992 -8.038544 7.7569427c-3.7960815 0.6309509 -7.5773926 -1.2409058 -9.710297 -4.8068542c-2.6144714 1.7576599 -5.7516174 2.2639923 -8.703766 1.4047699c-2.9521484 -0.8592377 -5.4706116 -3.01165 -6.9873047 -5.97171l0 0c-2.6716614 0.34855652 -5.2547913 -1.1946487 -6.4673767 -3.8637238c-1.2125854 -2.669075 -0.7965393 -5.8958435 1.0417175 -8.078865l0 0c-2.3832092 -1.5638123 -3.5992432 -4.666939 -3.014038 -7.6912155c0.5852356 -3.0242844 2.8390808 -5.284401 5.5863037 -5.601799z" fill-rule="nonzero"></path><path fill="#000000" fill-opacity="0.0" d="m463.78174 111.755356l0 0c1.1246338 0.73796844 2.4238586 1.0727234 3.7232056 0.9593277m1.7018738 10.983528c0.55877686 -0.072898865 1.1064758 -0.22727203 1.6289978 -0.45913696m14.06131 5.025879c-0.39300537 -0.6570587 -0.7220459 -1.3591919 -0.98153687 -2.0944214m18.731018 -0.8557892l0 0c0.20275879 -0.74845886 0.33413696 -1.5187912 0.39193726 -2.2981339m12.613007 -5.6581497c0.026306152 -3.649376 -1.8328857 -6.990776 -4.7789917 -8.588982m11.266785 -9.156792c-0.47711182 1.2426758 -1.2055054 2.3450394 -2.1279907 3.2206573m-3.0164185 -15.117775l0 0c0.08129883 0.5018158 0.11895752 1.0111847 0.11236572 1.5210266m-12.58374 -5.2464066l0 0c-0.4456787 0.5846863 -0.8128662 1.23806 -1.0901184 1.9397812m-9.752716 -0.7950821l0 0c-0.23751831 0.53105927 -0.41485596 1.0930176 -0.5279846 1.6729202m-11.893433 0.45758057l0 0c0.69348145 0.45280457 1.335022 0.99780273 1.9105835 1.6230164m-16.763062 9.412277l0 0c0.07055664 0.5781021 0.18203735 1.149086 0.33340454 1.7075958" fill-rule="nonzero"></path><path stroke="#000000" stroke-width="2.0" stroke-linejoin="round" stroke-linecap="butt" d="m466.40683 98.30068l0 0c-0.5119629 -4.194481 1.1688843 -8.346764 4.3292847 -10.694878c3.160431 -2.348114 7.2461243 -2.4802551 10.523407 -0.34035492l0 0c1.1608887 -2.4388428 3.2857056 -4.122696 5.7316895 -4.5422287c2.445984 -0.41953278 4.925873 0.4745407 6.6895447 2.411766l0 0c0.9889221 -2.2112122 2.9307556 -3.6968613 5.136383 -3.9297714c2.2056274 -0.23290253 4.362915 0.8199005 5.7063293 2.7848282l0 0c1.7866821 -2.3438873 4.6293335 -3.3307571 7.2979126 -2.5335922c2.6686096 0.7971649 4.6838074 3.2351837 5.1736755 6.2591095l0 0c2.1890259 0.6656723 4.01239 2.3579025 4.9990234 4.6394653c0.98669434 2.2815628 1.039856 4.92865 0.14581299 7.257332l0 0c2.1555176 3.127678 2.659729 7.295265 1.3245239 10.947502c-1.3352661 3.652237 -4.309326 6.24041 -7.812378 6.7986526c-0.024658203 3.4277573 -1.7108765 6.573021 -4.4086 8.223473c-2.697754 1.6504593 -5.9858093 1.548378 -8.596802 -0.26689148c-1.1121521 4.1053314 -4.242462 7.125992 -8.038544 7.7569427c-3.7960815 0.6309509 -7.5773926 -1.2409058 -9.710297 -4.8068542c-2.6144714 1.7576599 -5.7516174 2.2639923 -8.703766 1.4047699c-2.9521484 -0.8592377 -5.4706116 -3.01165 -6.9873047 -5.97171l0 0c-2.6716614 0.34855652 -5.2547913 -1.1946487 -6.4673767 -3.8637238c-1.2125854 -2.669075 -0.7965393 -5.8958435 1.0417175 -8.078865l0 0c-2.3832092 -1.5638123 -3.5992432 -4.666939 -3.014038 -7.6912155c0.5852356 -3.0242844 2.8390808 -5.284401 5.5863037 -5.601799z" fill-rule="nonzero"></path><path stroke="#000000" stroke-width="2.0" stroke-linejoin="round" stroke-linecap="butt" d="m463.78174 111.755356l0 0c1.1246338 0.73796844 2.4238586 1.0727234 3.7232056 0.9593277m1.7018738 10.983528c0.55877686 -0.072898865 1.1064758 -0.22727203 1.6289978 -0.45913696m14.06131 5.025879c-0.39300537 -0.6570587 -0.7220459 -1.3591919 -0.98153687 -2.0944214m18.731018 -0.8557892l0 0c0.20275879 -0.74845886 0.33413696 -1.5187912 0.39193726 -2.2981339m12.613007 -5.6581497c0.026306152 -3.649376 -1.8328857 -6.990776 -4.7789917 -8.588982m11.266785 -9.156792c-0.47711182 1.2426758 -1.2055054 2.3450394 -2.1279907 3.2206573m-3.0164185 -15.117775l0 0c0.08129883 0.5018158 0.11895752 1.0111847 0.11236572 1.5210266m-12.58374 -5.2464066l0 0c-0.4456787 0.5846863 -0.8128662 1.23806 -1.0901184 1.9397812m-9.752716 -0.7950821l0 0c-0.23751831 0.53105927 -0.41485596 1.0930176 -0.5279846 1.6729202m-11.893433 0.45758057l0 0c0.69348145 0.45280457 1.335022 0.99780273 1.9105835 1.6230164m-16.763062 9.412277l0 0c0.07055664 0.5781021 0.18203735 1.149086 0.33340454 1.7075958" fill-rule="nonzero"></path><path fill="#000000" d="m478.4102 110.598366l3.578125 -9.3125l1.3125 0l3.8125 9.3125l-1.40625 0l-1.078125 -2.8125l-3.890625 0l-1.03125 2.8125l-1.296875 0zm2.6875 -3.828125l3.15625 0l-0.984375 -2.578125q-0.4375 -1.171875 -0.65625 -1.921875q-0.171875 0.890625 -0.5 1.78125l-1.015625 2.71875zm7.2178955 3.828125l0 -9.3125l3.515625 0q0.921875 0 1.40625 0.09375q0.6875 0.109375 1.15625 0.4375q0.46875 0.3125 0.75 0.890625q0.28125 0.578125 0.28125 1.28125q0 1.1875 -0.765625 2.015625q-0.75 0.8125 -2.71875 0.8125l-2.390625 0l0 3.78125l-1.234375 0zm1.234375 -4.875l2.40625 0q1.1875 0 1.6875 -0.4375q0.515625 -0.453125 0.515625 -1.265625q0 -0.578125 -0.296875 -0.984375q-0.296875 -0.421875 -0.78125 -0.5625q-0.3125 -0.078125 -1.15625 -0.078125l-2.375 0l0 3.328125zm7.874115 4.875l0 -9.3125l1.21875 0l0 9.3125l-1.21875 0z" fill-rule="nonzero"></path><path fill="#ffffff" d="m482.40683 114.30068l0 0c-0.5119629 -4.194481 1.1688843 -8.346764 4.3292847 -10.694878c3.160431 -2.348114 7.2461243 -2.4802551 10.523407 -0.34035492l0 0c1.1608887 -2.4388428 3.2857056 -4.122696 5.7316895 -4.5422287c2.445984 -0.41953278 4.925873 0.4745407 6.6895447 2.411766l0 0c0.9889221 -2.2112122 2.9307556 -3.6968613 5.136383 -3.9297714c2.2056274 -0.23290253 4.362915 0.8199005 5.70636 2.7848282l0 0c1.7866821 -2.3438873 4.6293335 -3.3307571 7.2979126 -2.5335922c2.668579 0.7971649 4.683777 3.2351837 5.173645 6.2591095l0 0c2.1890259 0.6656723 4.01239 2.3579025 4.9990234 4.6394653c0.98669434 2.2815628 1.039856 4.92865 0.14581299 7.257332l0 0c2.1555176 3.127678 2.659729 7.295265 1.3245239 10.947502c-1.3352661 3.652237 -4.309326 6.240402 -7.812378 6.7986603c-0.024658203 3.4277496 -1.7108765 6.5730133 -4.4086304 8.223465c-2.697754 1.6504517 -5.985779 1.5483704 -8.596802 -0.26689148c-1.1121216 4.1053314 -4.2424316 7.125992 -8.038513 7.7569427c-3.7960815 0.6309509 -7.5773926 -1.2409058 -9.710297 -4.8068542c-2.6144714 1.7576599 -5.7516174 2.2639923 -8.703766 1.4047699c-2.9521484 -0.8592377 -5.4706116 -3.0116577 -6.9873047 -5.97171l0 0c-2.6716614 0.34855652 -5.2547913 -1.1946411 -6.4673767 -3.8637238c-1.2125854 -2.6690826 -0.7965393 -5.8958435 1.0417175 -8.078865l0 0c-2.3832092 -1.5638123 -3.5992432 -4.666939 -3.014038 -7.6912155c0.5852356 -3.0242844 2.8390808 -5.284401 5.5863037 -5.601799z" fill-rule="nonzero"></path><path fill="#000000" fill-opacity="0.0" d="m479.78174 127.755356l0 0c1.1246338 0.7379608 2.4238586 1.0727234 3.7232056 0.9593353m1.7018738 10.9835205c0.55877686 -0.072906494 1.1064758 -0.22727966 1.6289978 -0.45913696m14.06131 5.025879c-0.39300537 -0.6570587 -0.7220459 -1.3591919 -0.98153687 -2.0944214m18.731018 -0.8557892l0 0c0.20275879 -0.74845886 0.33416748 -1.5187836 0.39190674 -2.2981415m12.613037 -5.658142c0.026306152 -3.6493683 -1.8328857 -6.990776 -4.7789917 -8.588982m11.266785 -9.156792c-0.47711182 1.2426758 -1.2055054 2.3450394 -2.1279907 3.2206573m-3.0164185 -15.117775l0 0c0.08129883 0.5018158 0.11895752 1.0111847 0.11236572 1.5210266m-12.58374 -5.2464066l0 0c-0.4456787 0.5846863 -0.8128662 1.23806 -1.0901489 1.9397812m-9.752686 -0.7950821l0 0c-0.23751831 0.53105927 -0.41485596 1.0930176 -0.5279846 1.6729202m-11.893433 0.45758057l0 0c0.69348145 0.45280457 1.335022 0.99780273 1.9105835 1.6230164m-16.763062 9.412277l0 0c0.07055664 0.5781021 0.18203735 1.149086 0.33340454 1.7075958" fill-rule="nonzero"></path><path stroke="#000000" stroke-width="2.0" stroke-linejoin="round" stroke-linecap="butt" d="m482.40683 114.30068l0 0c-0.5119629 -4.194481 1.1688843 -8.346764 4.3292847 -10.694878c3.160431 -2.348114 7.2461243 -2.4802551 10.523407 -0.34035492l0 0c1.1608887 -2.4388428 3.2857056 -4.122696 5.7316895 -4.5422287c2.445984 -0.41953278 4.925873 0.4745407 6.6895447 2.411766l0 0c0.9889221 -2.2112122 2.9307556 -3.6968613 5.136383 -3.9297714c2.2056274 -0.23290253 4.362915 0.8199005 5.70636 2.7848282l0 0c1.7866821 -2.3438873 4.6293335 -3.3307571 7.2979126 -2.5335922c2.668579 0.7971649 4.683777 3.2351837 5.173645 6.2591095l0 0c2.1890259 0.6656723 4.01239 2.3579025 4.9990234 4.6394653c0.98669434 2.2815628 1.039856 4.92865 0.14581299 7.257332l0 0c2.1555176 3.127678 2.659729 7.295265 1.3245239 10.947502c-1.3352661 3.652237 -4.309326 6.240402 -7.812378 6.7986603c-0.024658203 3.4277496 -1.7108765 6.5730133 -4.4086304 8.223465c-2.697754 1.6504517 -5.985779 1.5483704 -8.596802 -0.26689148c-1.1121216 4.1053314 -4.2424316 7.125992 -8.038513 7.7569427c-3.7960815 0.6309509 -7.5773926 -1.2409058 -9.710297 -4.8068542c-2.6144714 1.7576599 -5.7516174 2.2639923 -8.703766 1.4047699c-2.9521484 -0.8592377 -5.4706116 -3.0116577 -6.9873047 -5.97171l0 0c-2.6716614 0.34855652 -5.2547913 -1.1946411 -6.4673767 -3.8637238c-1.2125854 -2.6690826 -0.7965393 -5.8958435 1.0417175 -8.078865l0 0c-2.3832092 -1.5638123 -3.5992432 -4.666939 -3.014038 -7.6912155c0.5852356 -3.0242844 2.8390808 -5.284401 5.5863037 -5.601799z" fill-rule="nonzero"></path><path stroke="#000000" stroke-width="2.0" stroke-linejoin="round" stroke-linecap="butt" d="m479.78174 127.755356l0 0c1.1246338 0.7379608 2.4238586 1.0727234 3.7232056 0.9593353m1.7018738 10.9835205c0.55877686 -0.072906494 1.1064758 -0.22727966 1.6289978 -0.45913696m14.06131 5.025879c-0.39300537 -0.6570587 -0.7220459 -1.3591919 -0.98153687 -2.0944214m18.731018 -0.8557892l0 0c0.20275879 -0.74845886 0.33416748 -1.5187836 0.39190674 -2.2981415m12.613037 -5.658142c0.026306152 -3.6493683 -1.8328857 -6.990776 -4.7789917 -8.588982m11.266785 -9.156792c-0.47711182 1.2426758 -1.2055054 2.3450394 -2.1279907 3.2206573m-3.0164185 -15.117775l0 0c0.08129883 0.5018158 0.11895752 1.0111847 0.11236572 1.5210266m-12.58374 -5.2464066l0 0c-0.4456787 0.5846863 -0.8128662 1.23806 -1.0901489 1.9397812m-9.752686 -0.7950821l0 0c-0.23751831 0.53105927 -0.41485596 1.0930176 -0.5279846 1.6729202m-11.893433 0.45758057l0 0c0.69348145 0.45280457 1.335022 0.99780273 1.9105835 1.6230164m-16.763062 9.412277l0 0c0.07055664 0.5781021 0.18203735 1.149086 0.33340454 1.7075958" fill-rule="nonzero"></path><path fill="#000000" d="m494.4102 126.598366l3.578125 -9.3125l1.3125 0l3.8125 9.3125l-1.40625 0l-1.078125 -2.8125l-3.890625 0l-1.03125 2.8125l-1.296875 0zm2.6875 -3.828125l3.15625 0l-0.984375 -2.578125q-0.4375 -1.171875 -0.65625 -1.921875q-0.171875 0.890625 -0.5 1.78125l-1.015625 2.71875zm7.2178955 3.828125l0 -9.3125l3.515625 0q0.921875 0 1.40625 0.09375q0.6875 0.109375 1.15625 0.4375q0.46875 0.3125 0.75 0.890625q0.28125 0.578125 0.28125 1.28125q0 1.1875 -0.765625 2.015625q-0.75 0.8125 -2.71875 0.8125l-2.390625 0l0 3.78125l-1.234375 0zm1.234375 -4.875l2.40625 0q1.1875 0 1.6875 -0.4375q0.515625 -0.453125 0.515625 -1.265625q0 -0.578125 -0.296875 -0.984375q-0.296875 -0.421875 -0.78125 -0.5625q-0.3125 -0.078125 -1.15625 -0.078125l-2.375 0l0 3.328125zm7.874115 4.875l0 -9.3125l1.21875 0l0 9.3125l-1.21875 0z" fill-rule="nonzero"></path><path fill="#ffffff" d="m111.53674 65.61176l0 0c-0.51195526 -4.194477 1.1688995 -8.34676 4.3293076 -10.694874c3.160408 -2.3481178 7.2461014 -2.480259 10.523376 -0.34035492l0 0c1.1609116 -2.4388428 3.2857285 -4.122696 5.7317123 -4.5422287c2.445984 -0.41952896 4.925873 0.4745407 6.6895294 2.4117699l0 0c0.9889374 -2.2112122 2.9307556 -3.696865 5.136383 -3.9297714c2.2056274 -0.23290634 4.362915 0.8198967 5.7063446 2.7848206l0 0c1.7866821 -2.3438797 4.6293335 -3.3307495 7.2979126 -2.5335884c2.6685944 0.7971649 4.6838226 3.2351837 5.173691 6.2591133l0 0c2.18898 0.6656723 4.0123596 2.3578987 4.9990387 4.6394615c0.9866638 2.2815628 1.0398254 4.928646 0.14576721 7.2573357l0 0c2.1555023 3.1276703 2.6597443 7.295265 1.3245087 10.947502c-1.3352203 3.6522293 -4.3092957 6.240402 -7.812332 6.7986526c-0.02470398 3.4277496 -1.7108917 6.573021 -4.4086304 8.223473c-2.697754 1.6504517 -5.9858093 1.5483704 -8.596802 -0.2668991c-1.1121521 4.1053314 -4.242462 7.125992 -8.038544 7.7569504c-3.7960815 0.6309509 -7.5773926 -1.2409058 -9.710281 -4.806862c-2.6144714 1.7576675 -5.7516174 2.264 -8.703766 1.4047699c-2.9521484 -0.85923004 -5.470619 -3.01165 -6.9873047 -5.9717026l0 0c-2.6716614 0.3485489 -5.2547913 -1.1946487 -6.4673843 -3.8637314c-1.2126007 -2.669075 -0.7965317 -5.895836 1.0417099 -8.078865l0 0c-2.383194 -1.5638123 -3.5992432 -4.666939 -3.0140228 -7.6912155c0.5852127 -3.0242767 2.8390884 -5.284401 5.5863037 -5.6017914z" fill-rule="nonzero"></path><path fill="#000000" fill-opacity="0.0" d="m108.91165 79.06644l0 0c1.1246338 0.73796844 2.423851 1.072731 3.7232132 0.9593353m1.7018814 10.983528c0.5587692 -0.072906494 1.1064758 -0.22727966 1.6289825 -0.4591446m14.06131 5.025879c-0.39300537 -0.6570587 -0.7220459 -1.3591843 -0.9815216 -2.0944138m18.731018 -0.8557892l0 0c0.20275879 -0.74845886 0.33413696 -1.5187912 0.391922 -2.2981415m12.613007 -5.6581497c0.026290894 -3.6493683 -1.832901 -6.9907684 -4.7789764 -8.588974m11.266754 -9.156799c-0.47711182 1.2426834 -1.2054749 2.345047 -2.1279755 3.220665m-3.016388 -15.117783l0 0c0.08129883 0.5018234 0.118927 1.0111885 0.112350464 1.5210342m-12.58374 -5.2464066l0 0c-0.4456787 0.58468246 -0.8128662 1.2380562 -1.0901337 1.9397774m-9.752701 -0.7950821l0 0c-0.23751831 0.53105927 -0.41487122 1.0930138 -0.5279846 1.6729164m-11.893433 0.4575882l0 0c0.6934738 0.45280075 1.335022 0.9977951 1.9105682 1.6230164m-16.763062 9.41227l0 0c0.07056427 0.57810974 0.18205261 1.149086 0.33342743 1.7075958" fill-rule="nonzero"></path><path stroke="#000000" stroke-width="2.0" stroke-linejoin="round" stroke-linecap="butt" d="m111.53674 65.61176l0 0c-0.51195526 -4.194477 1.1688995 -8.34676 4.3293076 -10.694874c3.160408 -2.3481178 7.2461014 -2.480259 10.523376 -0.34035492l0 0c1.1609116 -2.4388428 3.2857285 -4.122696 5.7317123 -4.5422287c2.445984 -0.41952896 4.925873 0.4745407 6.6895294 2.4117699l0 0c0.9889374 -2.2112122 2.9307556 -3.696865 5.136383 -3.9297714c2.2056274 -0.23290634 4.362915 0.8198967 5.7063446 2.7848206l0 0c1.7866821 -2.3438797 4.6293335 -3.3307495 7.2979126 -2.5335884c2.6685944 0.7971649 4.6838226 3.2351837 5.173691 6.2591133l0 0c2.18898 0.6656723 4.0123596 2.3578987 4.9990387 4.6394615c0.9866638 2.2815628 1.0398254 4.928646 0.14576721 7.2573357l0 0c2.1555023 3.1276703 2.6597443 7.295265 1.3245087 10.947502c-1.3352203 3.6522293 -4.3092957 6.240402 -7.812332 6.7986526c-0.02470398 3.4277496 -1.7108917 6.573021 -4.4086304 8.223473c-2.697754 1.6504517 -5.9858093 1.5483704 -8.596802 -0.2668991c-1.1121521 4.1053314 -4.242462 7.125992 -8.038544 7.7569504c-3.7960815 0.6309509 -7.5773926 -1.2409058 -9.710281 -4.806862c-2.6144714 1.7576675 -5.7516174 2.264 -8.703766 1.4047699c-2.9521484 -0.85923004 -5.470619 -3.01165 -6.9873047 -5.9717026l0 0c-2.6716614 0.3485489 -5.2547913 -1.1946487 -6.4673843 -3.8637314c-1.2126007 -2.669075 -0.7965317 -5.895836 1.0417099 -8.078865l0 0c-2.383194 -1.5638123 -3.5992432 -4.666939 -3.0140228 -7.6912155c0.5852127 -3.0242767 2.8390884 -5.284401 5.5863037 -5.6017914z" fill-rule="nonzero"></path><path stroke="#000000" stroke-width="2.0" stroke-linejoin="round" stroke-linecap="butt" d="m108.91165 79.06644l0 0c1.1246338 0.73796844 2.423851 1.072731 3.7232132 0.9593353m1.7018814 10.983528c0.5587692 -0.072906494 1.1064758 -0.22727966 1.6289825 -0.4591446m14.06131 5.025879c-0.39300537 -0.6570587 -0.7220459 -1.3591843 -0.9815216 -2.0944138m18.731018 -0.8557892l0 0c0.20275879 -0.74845886 0.33413696 -1.5187912 0.391922 -2.2981415m12.613007 -5.6581497c0.026290894 -3.6493683 -1.832901 -6.9907684 -4.7789764 -8.588974m11.266754 -9.156799c-0.47711182 1.2426834 -1.2054749 2.345047 -2.1279755 3.220665m-3.016388 -15.117783l0 0c0.08129883 0.5018234 0.118927 1.0111885 0.112350464 1.5210342m-12.58374 -5.2464066l0 0c-0.4456787 0.58468246 -0.8128662 1.2380562 -1.0901337 1.9397774m-9.752701 -0.7950821l0 0c-0.23751831 0.53105927 -0.41487122 1.0930138 -0.5279846 1.6729164m-11.893433 0.4575882l0 0c0.6934738 0.45280075 1.335022 0.9977951 1.9105682 1.6230164m-16.763062 9.41227l0 0c0.07056427 0.57810974 0.18205261 1.149086 0.33342743 1.7075958" fill-rule="nonzero"></path><path fill="#000000" d="m123.54012 77.909454l3.578125 -9.3125l1.3125076 0l3.8125 9.3125l-1.40625 0l-1.078125 -2.8125l-3.8906326 0l-1.03125 2.8125l-1.296875 0zm2.6875 -3.828125l3.1562576 0l-0.984375 -2.578125q-0.43750763 -1.171875 -0.6562576 -1.921875q-0.171875 0.890625 -0.5 1.78125l-1.015625 2.71875zm7.217888 3.828125l0 -9.3125l3.515625 0q0.921875 0 1.40625 0.09375q0.6875 0.109375 1.15625 0.4375q0.46875 0.3125 0.75 0.890625q0.28125 0.578125 0.28125 1.28125q0 1.1875 -0.765625 2.015625q-0.75 0.8125 -2.71875 0.8125l-2.390625 0l0 3.78125l-1.234375 0zm1.234375 -4.875l2.40625 0q1.1875 0 1.6875 -0.4375q0.515625 -0.453125 0.515625 -1.265625q0 -0.578125 -0.296875 -0.984375q-0.296875 -0.421875 -0.78125 -0.5625q-0.3125 -0.078125 -1.15625 -0.078125l-2.375 0l0 3.328125zm7.8741302 4.875l0 -9.3125l1.21875 0l0 9.3125l-1.21875 0z" fill-rule="nonzero"></path></g></svg>

